<mxfile host="app.diagrams.net" modified="2023-12-21T16:22:31.329Z" agent="Mozilla/5.0 (Windows NT 10.0; Win64; x64) AppleWebKit/537.36 (KHTML, like Gecko) Chrome/120.0.0.0 Safari/537.36" etag="EbA6O2lNBAT6eaLZetpm" version="22.1.11" type="google">
  <diagram name="第 1 页" id="MHlysu_X6wJRxTrQVHWm">
    <mxGraphModel grid="0" page="0" gridSize="10" guides="1" tooltips="1" connect="1" arrows="1" fold="1" pageScale="1" pageWidth="827" pageHeight="1169" math="0" shadow="0">
      <root>
        <mxCell id="0" />
        <mxCell id="1" parent="0" />
        <mxCell id="ZuVnYkHqsug-6GdM3sNr-1" value="美食資訊" style="rounded=1;whiteSpace=wrap;html=1;fontSize=16;arcSize=23;" vertex="1" parent="1">
          <mxGeometry x="281" y="97" width="105" height="33" as="geometry" />
        </mxCell>
        <mxCell id="ZuVnYkHqsug-6GdM3sNr-2" value="" style="ellipse;whiteSpace=wrap;html=1;fontSize=16;rotation=90;" vertex="1" parent="1">
          <mxGeometry x="245" y="-60" width="82" height="63" as="geometry" />
        </mxCell>
        <mxCell id="ZuVnYkHqsug-6GdM3sNr-3" value="" style="ellipse;whiteSpace=wrap;html=1;fontSize=16;rotation=75;" vertex="1" parent="1">
          <mxGeometry x="163" y="-35" width="82" height="63" as="geometry" />
        </mxCell>
        <mxCell id="ZuVnYkHqsug-6GdM3sNr-5" value="" style="ellipse;whiteSpace=wrap;html=1;fontSize=16;rotation=105;" vertex="1" parent="1">
          <mxGeometry x="418" y="-35" width="82" height="63" as="geometry" />
        </mxCell>
        <mxCell id="ZuVnYkHqsug-6GdM3sNr-6" style="edgeStyle=none;curved=1;rounded=0;orthogonalLoop=1;jettySize=auto;html=1;exitX=1;exitY=0;exitDx=0;exitDy=0;entryX=0.75;entryY=1;entryDx=0;entryDy=0;fontSize=12;startSize=8;endSize=8;" edge="1" parent="1" source="ZuVnYkHqsug-6GdM3sNr-8" target="ZuVnYkHqsug-6GdM3sNr-13">
          <mxGeometry relative="1" as="geometry" />
        </mxCell>
        <mxCell id="ZuVnYkHqsug-6GdM3sNr-7" style="edgeStyle=none;curved=1;rounded=0;orthogonalLoop=1;jettySize=auto;html=1;exitX=1;exitY=0.5;exitDx=0;exitDy=0;entryX=0.75;entryY=1;entryDx=0;entryDy=0;fontSize=12;startSize=8;endSize=8;" edge="1" parent="1" source="ZuVnYkHqsug-6GdM3sNr-8" target="ZuVnYkHqsug-6GdM3sNr-13">
          <mxGeometry relative="1" as="geometry" />
        </mxCell>
        <mxCell id="ZuVnYkHqsug-6GdM3sNr-8" value="" style="ellipse;whiteSpace=wrap;html=1;fontSize=16;rotation=105;" vertex="1" parent="1">
          <mxGeometry x="336" y="-60" width="82" height="63" as="geometry" />
        </mxCell>
        <mxCell id="ZuVnYkHqsug-6GdM3sNr-11" value="標題" style="text;strokeColor=none;fillColor=none;html=1;align=center;verticalAlign=middle;whiteSpace=wrap;rounded=0;fontSize=16;" vertex="1" parent="1">
          <mxGeometry x="183" y="-21" width="42" height="35" as="geometry" />
        </mxCell>
        <mxCell id="ZuVnYkHqsug-6GdM3sNr-12" value="簡介" style="text;strokeColor=none;fillColor=none;html=1;align=center;verticalAlign=middle;whiteSpace=wrap;rounded=0;fontSize=16;" vertex="1" parent="1">
          <mxGeometry x="267.5" y="-46.5" width="37" height="36" as="geometry" />
        </mxCell>
        <mxCell id="ZuVnYkHqsug-6GdM3sNr-13" value="圖片" style="text;strokeColor=none;fillColor=none;html=1;align=center;verticalAlign=middle;whiteSpace=wrap;rounded=0;fontSize=16;" vertex="1" parent="1">
          <mxGeometry x="357" y="-42" width="40" height="35" as="geometry" />
        </mxCell>
        <mxCell id="ZuVnYkHqsug-6GdM3sNr-14" value="內容" style="text;strokeColor=none;fillColor=none;html=1;align=center;verticalAlign=middle;whiteSpace=wrap;rounded=0;fontSize=16;" vertex="1" parent="1">
          <mxGeometry x="436" y="-23.5" width="46" height="40" as="geometry" />
        </mxCell>
        <mxCell id="ZuVnYkHqsug-6GdM3sNr-17" value="" style="endArrow=none;html=1;rounded=0;fontSize=12;startSize=8;endSize=8;curved=1;exitX=1;exitY=0.5;exitDx=0;exitDy=0;entryX=0.5;entryY=0;entryDx=0;entryDy=0;" edge="1" parent="1" source="ZuVnYkHqsug-6GdM3sNr-3" target="ZuVnYkHqsug-6GdM3sNr-1">
          <mxGeometry width="50" height="50" relative="1" as="geometry">
            <mxPoint x="261" y="137" as="sourcePoint" />
            <mxPoint x="311" y="87" as="targetPoint" />
          </mxGeometry>
        </mxCell>
        <mxCell id="ZuVnYkHqsug-6GdM3sNr-18" value="" style="endArrow=none;html=1;rounded=0;fontSize=12;startSize=8;endSize=8;curved=1;entryX=1;entryY=0.5;entryDx=0;entryDy=0;exitX=0.5;exitY=0;exitDx=0;exitDy=0;" edge="1" parent="1" source="ZuVnYkHqsug-6GdM3sNr-1" target="ZuVnYkHqsug-6GdM3sNr-2">
          <mxGeometry width="50" height="50" relative="1" as="geometry">
            <mxPoint x="261" y="137" as="sourcePoint" />
            <mxPoint x="311" y="87" as="targetPoint" />
          </mxGeometry>
        </mxCell>
        <mxCell id="ZuVnYkHqsug-6GdM3sNr-19" value="" style="endArrow=none;html=1;rounded=0;fontSize=12;startSize=8;endSize=8;curved=1;entryX=1;entryY=0.5;entryDx=0;entryDy=0;exitX=0.5;exitY=0;exitDx=0;exitDy=0;" edge="1" parent="1" source="ZuVnYkHqsug-6GdM3sNr-1" target="ZuVnYkHqsug-6GdM3sNr-8">
          <mxGeometry width="50" height="50" relative="1" as="geometry">
            <mxPoint x="261" y="137" as="sourcePoint" />
            <mxPoint x="311" y="87" as="targetPoint" />
          </mxGeometry>
        </mxCell>
        <mxCell id="ZuVnYkHqsug-6GdM3sNr-20" value="" style="endArrow=none;html=1;rounded=0;fontSize=12;startSize=8;endSize=8;curved=1;entryX=1;entryY=0.5;entryDx=0;entryDy=0;exitX=0.5;exitY=0;exitDx=0;exitDy=0;" edge="1" parent="1" source="ZuVnYkHqsug-6GdM3sNr-1" target="ZuVnYkHqsug-6GdM3sNr-5">
          <mxGeometry width="50" height="50" relative="1" as="geometry">
            <mxPoint x="261" y="137" as="sourcePoint" />
            <mxPoint x="311" y="87" as="targetPoint" />
          </mxGeometry>
        </mxCell>
      </root>
    </mxGraphModel>
  </diagram>
</mxfile>
